<svg data-v-423bf9ae="" xmlns="http://www.w3.org/2000/svg" viewBox="0 0 497.3507372960932 60" class="font"><g data-v-423bf9ae="" id="7e12c631-9fd6-4e1c-8963-34e07697711c" fill="#488eff" transform="matrix(5.597014785954833,0,0,5.597014785954833,-0.39179015081279545,-18.638059287048414)"><path d="M9.53 5.51Q9.45 5.99 9.25 6.19Q9.06 6.40 8.57 6.40Q8.09 6.40 7.77 6.04L7.77 6.04L7.77 5.08Q6.97 5.14 5.95 5.16L5.95 5.16L5.95 11.06Q5.95 12.63 6.12 13.80L6.12 13.80Q5.58 13.98 4.77 13.98Q3.96 13.98 3.67 13.80L3.67 13.80L3.85 11.60L3.85 5.16L1.91 5.09L1.91 6.04Q1.82 6.17 1.58 6.29Q1.34 6.40 0.98 6.40Q0.62 6.40 0.42 6.19Q0.23 5.99 0.15 5.52Q0.07 5.06 0.07 4.56Q0.07 4.05 0.20 3.92L0.20 3.92Q1.93 4.00 4.59 4.00Q7.25 4.00 9.47 3.92L9.47 3.92Q9.60 4.05 9.60 4.55Q9.60 5.04 9.53 5.51ZM16.00 12.32L16.00 12.32L16.06 9.71Q16.06 9.65 16.06 9.52Q16.06 9.39 16.06 9.26Q16.06 9.14 16.06 9.02Q16.06 8.91 16.04 8.80Q16.03 8.70 16.01 8.60Q16.00 8.50 15.97 8.43Q15.93 8.35 15.89 8.28Q15.85 8.22 15.78 8.17Q15.72 8.11 15.64 8.07L15.64 8.07Q15.48 8.00 15.12 8.00L15.12 8.00Q14.29 8.00 13.21 9.04L13.21 9.04Q13.21 10.32 13.17 13.80L13.17 13.80Q12.41 13.93 11.92 13.93Q11.42 13.93 11.07 13.80L11.07 13.80Q11.20 12.83 11.20 9.86Q11.20 6.90 11.14 5.08L11.14 5.08Q11.10 4.40 10.29 4.31L10.29 4.31Q10.28 4.27 10.27 4.18L10.27 4.18Q10.24 4.03 10.24 3.97L10.24 3.97Q10.24 3.89 10.25 3.83L10.25 3.83Q11.15 3.49 11.76 3.41Q12.38 3.33 12.65 3.33Q12.91 3.33 12.97 3.33L12.97 3.33Q13.14 3.53 13.18 4.29Q13.22 5.04 13.22 6.25Q13.22 7.46 13.21 8.02L13.21 8.02Q13.83 7.27 14.64 6.89Q15.44 6.51 16.25 6.51Q17.06 6.51 17.51 7.04Q17.96 7.57 18.03 8.50L18.03 8.50Q18.06 8.91 18.06 9.34Q18.06 9.77 17.98 10.75Q17.90 11.72 17.90 12.50L17.90 12.50Q17.90 12.67 18.16 12.77Q18.41 12.87 18.65 12.87Q18.89 12.87 18.98 12.84L18.98 12.84Q19.07 13.02 19.07 13.18Q19.07 13.33 19.05 13.38L19.05 13.38Q17.77 14.05 17.14 14.05Q16.52 14.05 16.26 13.62Q16.00 13.19 16.00 12.32ZM22.33 10.85Q22.53 11.86 23.20 12.48Q23.87 13.10 24.77 13.10Q25.66 13.10 26.57 12.33L26.57 12.33Q26.91 12.56 26.99 12.87L26.99 12.87Q26.36 13.60 25.13 13.91L25.13 13.91Q24.63 14.04 23.98 14.04Q23.32 14.04 22.63 13.81Q21.93 13.57 21.38 13.12Q20.83 12.67 20.51 11.93Q20.19 11.20 20.19 10.30Q20.19 9.41 20.51 8.68Q20.84 7.95 21.38 7.49L21.38 7.49Q22.51 6.51 23.97 6.51L23.97 6.51Q25.25 6.51 26.18 7.20L26.18 7.20Q26.63 7.54 26.90 8.08Q27.17 8.63 27.17 9.31L27.17 9.31Q27.17 10.48 26.40 10.54L26.40 10.54L22.33 10.85ZM25.33 9.11Q25.33 8.29 24.88 7.83Q24.43 7.38 23.70 7.38Q22.97 7.38 22.59 8.06Q22.22 8.75 22.22 9.97L22.22 9.97Q23.92 9.78 25.29 9.58L25.29 9.58Q25.33 9.33 25.33 9.11L25.33 9.11ZM40.72 12.63L40.72 12.63Q39.36 14.04 37.25 14.04L37.25 14.04Q35.26 14.04 33.98 12.83L33.98 12.83Q33.35 12.22 32.99 11.23Q32.63 10.25 32.63 8.84Q32.63 7.42 33.29 6.23Q33.95 5.03 35.15 4.38Q36.35 3.72 37.83 3.72Q39.30 3.72 40.50 4.28L40.50 4.28Q40.62 4.43 40.62 4.66Q40.62 4.89 40.62 4.96L40.62 4.96L40.52 6.47Q40.15 6.72 39.80 6.72Q39.44 6.72 39.24 6.61Q39.03 6.51 38.94 6.32L38.94 6.32Q38.77 5.99 38.77 5.66Q38.77 5.33 38.79 5.07L38.79 5.07Q38.40 4.79 37.77 4.79Q37.14 4.79 36.75 4.91Q36.37 5.04 36.03 5.33Q35.68 5.61 35.44 6.04L35.44 6.04Q34.92 6.98 34.92 8.59L34.92 8.59Q34.92 10.63 35.82 11.72Q36.71 12.81 38.13 12.81L38.13 12.81Q39.16 12.81 40.17 11.94L40.17 11.94Q40.57 12.13 40.72 12.63ZM42.29 7.59L42.29 7.59Q41.84 7.59 41.84 7.21L41.84 7.21Q41.84 7.10 41.86 7.04L41.86 7.04Q42.10 6.87 43.03 6.71Q43.96 6.55 44.53 6.55L44.53 6.55Q44.74 7.24 44.74 8.10Q44.74 8.96 44.66 10.07Q44.57 11.17 44.57 11.62Q44.57 12.07 44.71 12.35Q44.84 12.63 45.27 12.63Q45.70 12.63 46.15 12.42Q46.61 12.21 47.31 11.65L47.31 11.65Q47.31 9.54 47.33 6.64L47.33 6.64Q48.11 6.52 48.59 6.52Q49.08 6.52 49.43 6.64L49.43 6.64Q49.33 8.14 49.33 9.52Q49.33 10.90 49.40 12.39L49.40 12.39Q49.42 12.61 49.49 12.74Q49.57 12.86 49.89 12.88Q50.20 12.90 50.33 12.95L50.33 12.95Q50.35 13.09 50.35 13.41L50.35 13.41Q49.76 13.75 49.16 13.89Q48.56 14.04 48.14 14.04Q47.72 14.04 47.57 13.73Q47.41 13.43 47.33 12.50L47.33 12.50Q45.66 14.04 44.14 14.04Q42.62 14.04 42.62 11.63L42.62 11.63L42.74 8.02Q42.74 7.79 42.60 7.69Q42.46 7.59 42.29 7.59ZM56.23 9.30L56.23 9.21Q56.23 8.05 55.70 8.05L55.70 8.05Q55.31 8.05 54.95 8.27Q54.60 8.49 54.19 8.89L54.19 8.89Q54.19 9.57 54.15 13.82L54.15 13.82Q53.39 13.95 52.91 13.95Q52.42 13.95 52.08 13.82L52.08 13.82Q52.16 12.68 52.16 9.93L52.16 9.93L52.16 8.33Q52.16 7.81 51.80 7.71L51.80 7.71Q51.55 7.64 51.13 7.60L51.13 7.60Q51.08 7.40 51.08 7.29Q51.08 7.18 51.09 7.12L51.09 7.12Q52.08 6.57 53.53 6.57L53.53 6.57Q53.76 6.57 53.88 6.58L53.88 6.58Q54.08 6.92 54.12 7.29Q54.15 7.66 54.17 7.99L54.17 7.99Q55.09 6.88 55.72 6.64L55.72 6.64Q56.02 6.52 56.36 6.52L56.36 6.52Q57.04 6.52 57.45 6.90Q57.87 7.28 57.87 8.01L57.87 8.01Q57.87 8.57 57.46 8.95L57.46 8.95Q57.05 9.32 56.48 9.32L56.48 9.32Q56.36 9.32 56.23 9.30L56.23 9.30ZM65.41 9.94L65.41 9.94L65.37 12.24Q65.37 12.27 65.37 12.30L65.37 12.30Q65.37 12.68 65.73 12.68L65.73 12.68Q66.00 12.68 66.31 12.50L66.31 12.50Q66.40 12.58 66.49 12.73Q66.58 12.88 66.59 12.96L66.59 12.96Q65.74 14.04 64.83 14.04Q63.92 14.04 63.55 13.15L63.55 13.15Q62.92 13.58 62.27 13.81Q61.62 14.04 61.15 14.04Q60.68 14.04 60.28 13.94Q59.88 13.84 59.54 13.61L59.54 13.61Q58.80 13.13 58.80 12.03L58.80 12.03Q58.80 11.44 59.13 11.00Q59.45 10.56 60.01 10.31L60.01 10.31Q61.09 9.82 62.58 9.78L62.58 9.78L63.37 9.75Q63.42 9.20 63.42 8.88L63.42 8.88Q63.42 8.16 63.14 7.79Q62.86 7.42 62.11 7.42L62.11 7.42Q61.66 7.42 61.41 7.73Q61.16 8.05 61.16 8.66L61.16 8.66Q61.16 8.74 60.93 8.86L60.93 8.86Q60.54 9.04 60.15 9.04Q59.77 9.04 59.54 8.83Q59.31 8.61 59.31 8.21Q59.31 7.81 59.60 7.46Q59.88 7.12 60.36 6.92L60.36 6.92Q61.31 6.55 62.53 6.55L62.53 6.55Q63.80 6.55 64.39 6.95L64.39 6.95Q64.92 7.31 65.15 7.97L65.15 7.97Q65.41 8.74 65.41 9.94ZM63.37 12.43L63.37 12.43Q63.28 11.93 63.28 11.56Q63.28 11.20 63.30 10.54L63.30 10.54L62.35 10.58Q61.62 10.58 61.22 10.94Q60.83 11.29 60.83 11.83Q60.83 12.36 61.06 12.59Q61.29 12.82 62.00 12.82Q62.71 12.82 63.37 12.43ZM71.69 12.43L71.69 12.43Q71.93 12.65 71.97 12.89L71.97 12.89Q71.07 14.04 69.88 14.04L69.88 14.04Q69.11 14.04 68.79 13.43L68.79 13.43Q68.52 12.89 68.46 11.57L68.46 11.57Q68.40 9.52 68.40 7.75L68.40 7.75Q67.70 7.72 67.55 7.68L67.55 7.68Q67.51 7.63 67.51 7.28Q67.51 6.93 67.55 6.90L67.55 6.90L68.41 6.82Q68.41 6.67 68.46 5.44L68.46 5.44Q68.80 5.09 69.46 4.90Q70.12 4.72 70.63 4.72L70.63 4.72Q70.53 5.58 70.47 6.82L70.47 6.82Q70.70 6.82 71.83 6.90L71.83 6.90Q71.87 7.01 71.87 7.34Q71.87 7.67 71.83 7.74L71.83 7.74Q71.20 7.82 70.43 7.84L70.43 7.84Q70.40 8.65 70.40 9.90Q70.40 11.14 70.46 12.24L70.46 12.24Q70.48 12.66 70.89 12.66Q71.29 12.66 71.69 12.43ZM81.03 10.08L81.03 10.08Q81.03 10.98 80.71 11.76Q80.38 12.55 79.80 13.05L79.80 13.05Q78.61 14.05 76.67 14.05L76.67 14.05Q75.70 14.05 74.88 13.60Q74.06 13.14 73.58 12.31Q73.09 11.49 73.09 10.35Q73.09 9.20 73.68 8.29L73.68 8.29Q74.83 6.48 77.55 6.48L77.55 6.48Q78.92 6.48 79.95 7.42L79.95 7.42Q81.03 8.39 81.03 10.08ZM75.11 10.28Q75.11 11.45 75.78 12.33Q76.46 13.20 77.37 13.20L77.37 13.20Q79.05 13.20 79.05 10.46L79.05 10.46Q79.05 9.10 78.43 8.25Q77.81 7.40 76.84 7.40L76.84 7.40Q76.36 7.40 76.00 7.65Q75.65 7.90 75.46 8.31L75.46 8.31Q75.11 9.11 75.11 10.28ZM87.29 9.30L87.29 9.21Q87.29 8.05 86.76 8.05L86.76 8.05Q86.37 8.05 86.02 8.27Q85.66 8.49 85.25 8.89L85.25 8.89Q85.25 9.57 85.21 13.82L85.21 13.82Q84.45 13.95 83.97 13.95Q83.49 13.95 83.14 13.82L83.14 13.82Q83.22 12.68 83.22 9.93L83.22 9.93L83.22 8.33Q83.22 7.81 82.86 7.71L82.86 7.71Q82.61 7.64 82.20 7.60L82.20 7.60Q82.15 7.40 82.15 7.29Q82.15 7.18 82.15 7.12L82.15 7.12Q83.14 6.57 84.59 6.57L84.59 6.57Q84.83 6.57 84.94 6.58L84.94 6.58Q85.14 6.92 85.18 7.29Q85.22 7.66 85.24 7.99L85.24 7.99Q86.15 6.88 86.78 6.64L86.78 6.64Q87.08 6.52 87.42 6.52L87.42 6.52Q88.10 6.52 88.52 6.90Q88.93 7.28 88.93 8.01L88.93 8.01Q88.93 8.57 88.52 8.95L88.52 8.95Q88.12 9.32 87.54 9.32L87.54 9.32Q87.42 9.32 87.29 9.30L87.29 9.30Z"></path></g></svg>